<svg xmlns="http://www.w3.org/2000/svg" width="32" height="32" viewBox="0 0 32 32"><defs><style>.a,.b{fill:none;}.b{stroke:#006eeb;stroke-miterlimit:10;stroke-width:2px;}</style></defs><path class="a" d="M0,0H32V32H0Z"/><g transform="translate(-1188.416 1558.421)"><path class="b" d="M1216.986-1545.456l-12.1,5.837a1.645,1.645,0,0,1-1.43,0l-12.1-5.837a1.645,1.645,0,0,1,0-2.964l12.1-5.838a1.652,1.652,0,0,1,1.43,0l12.1,5.838A1.645,1.645,0,0,1,1216.986-1545.456Z"/><path class="b" d="M1193.387-1544.469l-2.041.987a1.649,1.649,0,0,0,0,2.963l2.041.987,10.072,4.855a1.64,1.64,0,0,0,1.415,0l10.073-4.855,2.04-.987a1.648,1.648,0,0,0,0-2.963l-2.04-.987"/><path class="b" d="M1214.947-1539.532l2.04.987a1.648,1.648,0,0,1,0,2.963l-12.113,5.842a1.64,1.64,0,0,1-1.415,0l-12.113-5.842a1.649,1.649,0,0,1,0-2.963l2.041-.987"/></g></svg>